<?xml version="1.0" encoding="UTF-8"?>
<svg id="Layer_2" data-name="Layer 2" xmlns="http://www.w3.org/2000/svg" viewBox="0 0 218.18 78.67">
  <defs>
    <style>
      .cls-1 {
        fill: #989999;
      }
    </style>
  </defs>
  <g id="Layer_1-2" data-name="Layer 1">
    <g>
      <g>
        <g>
          <path class="cls-1" d="m82.04,9.64c5.17,0,8.32,1.83,8.32,5.6,0,2.47-1.42,4.36-3.99,5.32-1.33.5-2.38.59-6.46.62v5.94c0,2.07.25,2.35,2.69,2.66v.77h-10.3v-.77c.59-.07,1.05-.12,1.39-.28,1.02-.4,1.21-1.27,1.21-2.84v-13.21c0-2.41-.43-2.84-2.6-3.03v-.77h9.74Zm-2.13,10.45c3.86-.03,5.13-1.08,5.13-4.51s-1.02-4.86-3.59-4.86c-1.02,0-1.54.37-1.54,1.08v8.29Z"/>
          <path class="cls-1" d="m111.99,10.42c-1.98.31-2.41.8-2.41,2.63v9.71c0,3.09-.84,5.47-2.35,6.68-1.33,1.08-3.49,1.7-5.69,1.7s-4.27-.53-5.72-1.67c-1.76-1.39-2.48-3.06-2.48-6.06v-10.02c0-2.51-.37-2.75-2.54-2.97v-.77h10.39v.77c-2.41.19-2.94.59-2.94,3.12v9.83c0,4.3,1.51,6.25,4.51,6.25,3.62,0,5.44-2.29,5.44-6.87v-9.28c0-2.26-.71-2.88-3-3.06v-.77h6.77v.77Z"/>
          <path class="cls-1" d="m127.99,30.55l-6.08-9.68h-.82v6.06c0,2.26.29,2.54,2.58,2.85v.77h-9.93v-.77c2.29-.28,2.59-.5,2.59-2.94v-13.33c0-2.41-.41-2.94-2.59-3.09v-.77h9.05c5.73,0,8.69,1.76,8.69,5.32,0,1.39-.47,2.81-1.32,3.65-.82.77-1.59,1.27-3.29,1.76l5.85,8.72c.26.4.77.68,1.29.68v.77h-6.02Zm-6.9-10.67c3.85-.03,5.37-.84,5.37-4.61,0-3.28-1.09-4.58-3.82-4.58-1.14,0-1.55.37-1.55,1.39v7.79Z"/>
          <path class="cls-1" d="m143.07,15.73l-3.58,9.77c-.35.96-.91,2.26-.91,3,0,.8.65,1.15,2.38,1.27v.77h-5.94v-.77c1.35-.25,1.79-.81,2.91-3.71l6.49-16.85h.82l6.52,16.14c1.5,3.74,2.03,4.42,3.23,4.42v.77h-9.46v-.77l.94-.09c.97-.09,1.35-.34,1.35-1.02s-.35-1.76-1.35-4.21l-3.41-8.72Z"/>
          <path class="cls-1" d="m183.23,15.73l-3.58,9.77c-.35.96-.91,2.26-.91,3,0,.8.65,1.15,2.38,1.27v.77h-5.93v-.77c1.35-.25,1.79-.81,2.91-3.71l6.49-16.85h.82l6.52,16.14c1.5,3.74,2.03,4.42,3.23,4.42v.77h-9.46v-.77l.94-.09c.97-.09,1.35-.34,1.35-1.02s-.35-1.76-1.35-4.21l-3.41-8.72Z"/>
          <path class="cls-1" d="m165.88,9.64c6.7,0,10.69,3.86,10.69,10.24,0,3.19-1.26,6.21-3.38,8.16-1.79,1.64-4.44,2.5-7.4,2.5h-9.08v-.77c1.7-.07,2.44-.78,2.44-2.26v-15.03c0-1.42-.56-1.89-2.44-2.07v-.77h9.17Zm-1.97,17.81c0,1.39.38,2.01,1.7,2.01,1.94,0,3.38-.74,4.38-2.23.91-1.39,1.47-4.17,1.47-6.89s-.35-4.95-1.2-6.53c-1.12-2.04-2.59-3.12-4.79-3.12-1.15,0-1.56.49-1.56,1.36v15.4Z"/>
          <path class="cls-1" d="m208.47,30.55v-.77c1.89-.07,2.24-.25,2.24-.65,0-.34-.17-.65-.73-1.39l-5.26-6.96-.78.77v6.06c0,1.52.44,1.89,2.53,2.17v.77h-9.76v-.77c2.15-.22,2.53-.59,2.53-2.35v-14.6c0-1.92-.52-2.29-2.53-2.41v-.77h9.79v.77c-2.15.15-2.56.71-2.56,2.6v6.9l6.16-6.65c.9-.96,1.16-1.3,1.16-1.79,0-.62-.35-.87-1.39-.96l-1.02-.09v-.77h8.4v.77c-2.88.37-3.95.9-9.35,7.02l8.86,11.69c.35.46.7.62,1.42.65v.77h-9.7Z"/>
        </g>
        <g>
          <path class="cls-1" d="m91.73,64.9c-2.83,3.59-5.27,4.56-8.77,4.56-6.55,0-10.66-4.59-10.66-10.69,0-6.63,4.36-11.51,10.57-11.51,1.46,0,2.99.34,4.75,1.09.7.31,1.1.44,1.4.44.58,0,.88-.31,1.34-1.44h.82v7.35h-.76c-.58-1.69-1.31-2.72-2.04-3.6-1.4-1.72-3.05-2.81-5.09-2.81-3.2,0-5.6,3.53-5.6,9.78,0,3.16.36,5.44,1.64,7.5.88,1.44,2.68,2.38,4.48,2.38,1.34,0,2.62-.38,3.84-1.07.98-.56,1.82-1.34,3.17-2.78l.91.78Z"/>
          <path class="cls-1" d="m105.91,68.87v-.78c2.22-.25,2.71-.69,2.71-2.28v-7.13h-7.71v7.13c0,1.66.49,2.03,2.71,2.28v.78h-10.23v-.78c2.13-.28,2.59-.62,2.59-2.28v-14.98c0-1.72-.55-2.13-2.59-2.31v-.78h10.23v.78c-2.13.16-2.71.56-2.71,2.31v6.38h7.71v-6.38c0-1.75-.58-2.16-2.71-2.31v-.78h10.33v.78c-2.07.16-2.68.63-2.68,2.31v14.98c0,1.66.48,2,2.68,2.28v.78h-10.33Z"/>
          <path class="cls-1" d="m119.66,68.87v-.78c2.28-.22,2.83-.59,2.83-2.53v-14.7c0-1.75-.64-2.19-2.83-2.35v-.78h10.66v.78c-2.25.09-2.89.59-2.89,2.35v14.7c0,2.03.58,2.37,2.89,2.53v.78h-10.66Z"/>
          <path class="cls-1" d="m151.1,64.9c-2.83,3.59-5.27,4.56-8.77,4.56-6.55,0-10.66-4.59-10.66-10.69,0-6.63,4.36-11.51,10.57-11.51,1.46,0,2.99.34,4.75,1.09.7.31,1.1.44,1.4.44.58,0,.88-.31,1.34-1.44h.82v7.35h-.76c-.58-1.69-1.31-2.72-2.04-3.6-1.4-1.72-3.05-2.81-5.09-2.81-3.2,0-5.61,3.53-5.61,9.78,0,3.16.37,5.44,1.65,7.5.88,1.44,2.68,2.38,4.48,2.38,1.34,0,2.62-.38,3.84-1.07.98-.56,1.83-1.34,3.17-2.78l.91.78Z"/>
          <path class="cls-1" d="m164.7,68.87v-.78c1.94-.06,2.31-.25,2.31-.66,0-.34-.18-.66-.75-1.41l-5.42-7.03-.81.78v6.13c0,1.53.45,1.91,2.61,2.19v.78h-10.07v-.78c2.22-.22,2.6-.59,2.6-2.38v-14.76c0-1.94-.54-2.31-2.6-2.44v-.78h10.1v.78c-2.22.16-2.64.72-2.64,2.63v6.97l6.35-6.72c.93-.97,1.2-1.31,1.2-1.81,0-.63-.36-.88-1.44-.97l-1.05-.09v-.78h8.66v.78c-2.97.38-4.08.91-9.65,7.1l9.14,11.82c.36.47.72.62,1.47.66v.78h-10.01Z"/>
          <path class="cls-1" d="m218.18,48.51c-2.05.31-2.46.63-2.46,2.6v18.32h-.88l-14.1-17.04v12.38c0,2.41.54,3.03,2.96,3.31v.78h-7.13v-.78c2.3-.28,2.77-.72,2.77-2.63v-14.69c-1.32-1.82-2.05-2.25-2.68-2.25v-.78h6.65l11,13.45v-9.35c0-2.5-.57-3.1-2.9-3.32v-.78h6.75v.78Z"/>
          <path class="cls-1" d="m186.56,48.8c4.96,0,6.52,1.03,7.22,5.22h.76v-6.28h-17.95v.78c2.1.13,2.68.63,2.68,2.22v14.98c0,1.63-.43,2.13-2.68,2.38v.78h17.95v-6.29h-.76c-.7,4.19-2.25,5.22-7.22,5.22-1.59,0-2.35-.5-2.35-1.69v-7.53c3.32,0,5,1.12,5.31,4.85h.79v-10.57h-.79c-.37,3.63-2.07,4.63-5.31,4.66v-7.04c0-1.19.77-1.69,2.35-1.69Z"/>
        </g>
        <rect class="cls-1" x="72.29" y="38.7" width="145.88" height=".89"/>
      </g>
      <g>
        <g>
          <path class="cls-1" d="m60.51,38.78l-8.62-20.81-.07-.03c-.13-.16-.3-.29-.5-.37l-20.54-8.51c-.15-.06-.31-.09-.48-.09s-.33.03-.48.09l-20.69,8.57-.03.03c-.17.1-.32.25-.42.42l-.03.03L.09,38.78c-.13.3-.13.65,0,.95l8.57,20.69.03.03c.1.17.25.31.42.42l.03.03,20.69,8.57c.15.06.31.09.47.09s.32-.03.48-.09l20.69-8.57.03-.03c.13-.08.24-.17.33-.29l.07-.03,8.68-20.96v-.05c.01-.06.02-.11.02-.15,0-.08,0-.17,0-.24,0-.07-.02-.2-.08-.36Zm-9.19-17.71l6.7,16.18-6.7-6.7v-9.48Zm-2.83-2.83h-9.48l-6.7-6.7,16.18,6.7Zm-10.81,0h-14.75l7.38-7.38,7.38,7.38Zm-25.56,0l16.18-6.7-6.7,6.7h-9.48Zm8.54.94l-10.43,10.43v-10.43h10.43Zm-10.43,40.15v-10.43l10.43,10.43h-10.43Zm11.37.94l6.7,6.7-16.18-6.7h9.48ZM1.91,39.25l7.38-7.38v14.75l-7.38-7.38Zm7.38,8.71v9.48l-6.7-16.18,6.7,6.7Zm-6.7-10.71l6.7-16.18v9.48l-6.7,6.7Zm27.72,30.4l-7.38-7.38h14.75l-7.38,7.38Zm2-.67l6.7-6.7h9.48l-16.18,6.7Zm18.07-7.64h-10.43l10.43-10.43v10.43Zm0-11.76l-11.76,11.76h-16.63l-11.76-11.76v-16.63l11.76-11.76h16.63l11.76,11.76v16.63Zm0-17.96l-10.43-10.43h10.43v10.43Zm.94,27.83v-9.48l6.7-6.7-6.7,16.18Zm0-10.81v-14.75l7.38,7.38-7.38,7.38Z"/>
          <path class="cls-1" d="m39.45,46.92c.69-.42,1.32-.95,1.83-1.56h0s.02-.03.04-.04c.05-.06.1-.12.14-.18,2.74-3.54,1.87-8,1.31-9.53-.07-.23-.17-.45-.27-.66-.03-.06-.05-.11-.05-.11h0c-.38-.73-.93-1.35-1.61-2.21-1.34-1.7-.99-3.53.08-4.68-.62.18-1.6.71-2.19,1.33,0-5.35-4.11-8.44-7.68-6.35.97-.1,3.9.54,3.35,6.14-.32,3.23-2.8,2.15-1.67.1.68-1.24.53-3.67-.94-4.11.5.93-.47,2.73-1.39,3.47-1.77,1.42-2.16,2.99-1.35,5.35-.85-.51-1.76-.39-1.76-.39l.61.64c.49.62.89,1.42,1.12,2.37.57,2.34-.11,4.56-1.52,4.94s-3.02-1.21-3.59-3.55c-.57-2.34.11-4.56,1.52-4.94.5-.14,1.03-.01,1.52.29-.7-1.4-1.8-1.58-2.7-1.18.05-.67.64-1.74,2.02-1.75-1.51-.87-2.8-.1-3.06.36.1-1.37.89-2.56,2.47-3.48-.9.02-2.52.05-3.82.92-1.21.81-1.53,1.79-1.65,3.24-2.36.48-2.91,2.34-2.99,3,0,0,1.21-.9,2.25-.32.57.32.7,1.1.28,1.87-.71,1.31-1.39,3.36-.81,5.91.01.13.03.25.04.39.09.67-.25.8-.63.76-.44-.05-.95-.34-.95-.34.2.38.4.72.61,1.04,1.52,2.35,3.13,3.2,3.28,3.28h-3.21l12.03,9.27,12.1-9.27h-2.86l.11-.04Zm-1.36-14.3s.59,1.83.56,2.23c-.03.41-.36.71-.74.69-.38-.03-.68-.38-.65-.78.03-.41.83-2.13.83-2.13Z"/>
        </g>
        <g>
          <path class="cls-1" d="m7.99,6.61l1.46-.88c.81-.49,1.4-.22,1.69.26.29.48.25,1.13-.56,1.62l-.75.45.63,1.05-.71.43-1.77-2.92Zm1.55.94l.55-.33c.33-.2.59-.45.36-.82-.23-.37-.56-.26-.89-.06l-.55.34.53.88Z"/>
          <path class="cls-1" d="m28.26,0h1.17l.88,2.34h.01l.84-2.35h1.17s0,3.41,0,3.41h-.78V.99s0,0,0,0l-.93,2.42h-.64s-.92-2.39-.92-2.39h-.01v2.39s-.78,0-.78,0V0Z"/>
          <path class="cls-1" d="m36.94.54l.82.14-.58,3.35-.82-.14.58-3.35Z"/>
          <path class="cls-1" d="m44.34,4.71c-.3.87-1.01,1.1-1.97.78-.97-.33-1.39-.94-1.09-1.82l.68-2.01.79.27-.68,2.01c-.12.35-.14.73.5.95.56.19.82.03.98-.45l.69-2.01.79.27-.68,2.01Z"/>
          <path class="cls-1" d="m49.08,4.51l1.01.59-.41,2.48h0s1.9-1.6,1.9-1.6l1.01.59-1.71,2.95-.67-.39,1.21-2.09h0s-2.02,1.62-2.02,1.62l-.56-.32.4-2.54h0s-1.2,2.06-1.2,2.06l-.67-.39,1.71-2.95Z"/>
          <polygon class="cls-1" points="22.8 3.52 22.65 2.7 24.62 2.33 24.51 1.75 22.54 2.13 22.41 1.41 24.38 1.04 24.26 .42 21.47 .94 22.1 4.29 24.89 3.77 24.77 3.15 22.8 3.52"/>
          <path class="cls-1" d="m17.71,5.57h0l.75-.29-.29-.76h0c-.12-.33-.38-.59-.78-.54h0c.34-.3.4-.65.26-1.02-.18-.48-.74-.73-1.37-.48l-1.91.73,1.21,3.19.78-.3-.47-1.24.78-.3c.39-.15.63-.07.77.26l.29.76Zm-1.18-1.55l-.85.33-.34-.9.85-.33c.35-.13.59-.07.7.24.12.32-.01.53-.36.66Z"/>
        </g>
        <g>
          <path class="cls-1" d="m31.04,76.31c-.06-.34-.42-.59-.84-.59-.75,0-1.02.59-1.02,1.19,0,.57.3,1.14,1.05,1.13.51,0,.79-.32.85-.78h.81c-.07.84-.72,1.4-1.65,1.41-1.17.01-1.88-.77-1.89-1.76-.01-1.01.67-1.81,1.84-1.82.83,0,1.54.42,1.65,1.21h-.81Z"/>
          <path class="cls-1" d="m11.89,71.98c.11-.33-.09-.72-.45-.92-.66-.35-1.18.02-1.46.55-.27.5-.29,1.14.38,1.49.45.24.85.1,1.12-.27l.72.38c-.48.71-1.31.88-2.13.45-1.04-.55-1.28-1.57-.82-2.44.48-.89,1.46-1.27,2.5-.71.74.39,1.15,1.11.87,1.86l-.71-.38Z"/>
          <path class="cls-1" d="m16.28,72.72l.8.26-.41,1.25,1.46.48.41-1.25.79.26-1.06,3.26-.79-.26.46-1.4-1.46-.48-.46,1.41-.8-.26,1.06-3.25Z"/>
          <path class="cls-1" d="m23.58,74.52l.82.14-.59,3.37-.82-.14.59-3.37Z"/>
          <path class="cls-1" d="m47.17,71.58l.74-.38,2.46,1.32h0s-1.04-2.05-1.04-2.05l.7-.35,1.55,3.04-.75.38-2.45-1.32h0s1.04,2.04,1.04,2.04l-.7.35-1.55-3.04Z"/>
          <polygon class="cls-1" points="44.64 75.44 42.72 76.04 42.46 75.25 44.38 74.63 44.2 74.07 42.29 74.69 42.07 73.99 43.98 73.39 43.79 72.78 41.08 73.64 42.11 76.9 44.84 76.04 44.64 75.44"/>
          <polygon class="cls-1" points="36.65 76.3 38.26 74.37 37.23 74.5 36.1 75.92 35.96 76.1 35.92 75.8 35.77 74.7 34.94 74.81 35.39 78.19 36.23 78.07 36.08 76.99 36.04 76.69 36.22 76.81 37.69 77.86 38.72 77.71 36.65 76.3"/>
        </g>
      </g>
    </g>
  </g>
</svg>